<?xml version="1.0" standalone="no"?>
<!DOCTYPE svg PUBLIC "-//W3C//DTD SVG 20010904//EN"
 "http://www.w3.org/TR/2001/REC-SVG-20010904/DTD/svg10.dtd">
<svg version="1.0" xmlns="http://www.w3.org/2000/svg"
 width="512.000000pt" height="512.000000pt" viewBox="0 0 512.000000 512.000000"
 preserveAspectRatio="xMidYMid meet">
<metadata>
Created by potrace 1.14, written by Peter Selinger 2001-2017
</metadata>
<g transform="translate(0.000000,512.000000) scale(0.100000,-0.100000)"
fill="#000000" stroke="none">
<path d="M1585 5090 c-111 -26 -199 -121 -259 -282 -29 -76 -64 -207 -71 -269
-3 -23 -7 -45 -9 -48 -2 -3 -7 -37 -10 -76 -4 -38 -9 -87 -12 -108 -6 -47 12
-78 79 -134 139 -116 403 -205 683 -228 66 -6 309 -6 359 0 22 2 64 7 94 10
125 13 303 61 425 114 76 33 183 108 219 153 18 22 31 43 31 47 -1 3 -5 40 -8
81 -20 228 -85 470 -158 585 -98 155 -241 198 -422 127 -43 -17 -131 -63 -196
-101 -66 -39 -132 -74 -148 -77 -31 -6 -73 12 -167 72 -171 109 -328 158 -430
134z"/>
<path d="M991 4169 c-375 -210 -354 -495 51 -692 l107 -52 1 -40 c1 -22 3 -47
5 -56 1 -8 6 -42 10 -75 12 -108 46 -258 81 -364 147 -442 439 -719 809 -767
354 -46 685 123 889 454 92 150 146 284 189 478 27 117 32 151 51 333 2 18 5
34 7 36 2 2 43 22 92 46 387 186 436 456 119 663 -83 53 -134 76 -139 60 -10
-29 -79 -107 -136 -153 -239 -194 -702 -296 -1162 -255 -408 36 -742 179 -871
375 -15 22 -32 40 -38 40 -6 0 -35 -14 -65 -31z"/>
<path d="M4197 2524 c-1 -1 -24 -4 -52 -8 -164 -19 -346 -110 -476 -237 -305
-299 -340 -761 -84 -1124 13 -19 10 -26 -44 -95 -49 -63 -68 -79 -114 -98 -61
-26 -79 -44 -202 -201 -136 -175 -215 -275 -241 -305 -50 -59 -68 -106 -68
-181 1 -50 7 -81 22 -110 72 -140 255 -184 378 -90 18 14 72 76 120 138 49 61
91 114 94 117 20 18 198 252 216 285 13 22 26 62 29 89 6 40 18 64 63 120 31
39 57 72 58 74 0 1 32 -9 69 -23 113 -43 188 -55 320 -50 139 4 164 8 259 42
134 48 234 111 327 204 96 97 159 200 204 332 35 107 40 136 39 282 -1 110 -5
143 -28 218 -113 376 -421 612 -809 621 -43 1 -79 1 -80 0z m253 -283 c105
-37 149 -62 219 -127 168 -155 229 -363 177 -602 -11 -51 -87 -190 -131 -239
-203 -231 -570 -265 -814 -76 -228 178 -298 489 -168 750 40 82 150 197 232
243 147 84 336 103 485 51z"/>
<path d="M2590 2070 c-19 -3 -43 -11 -53 -16 -9 -6 -96 -88 -193 -183 -96 -96
-176 -172 -179 -170 -2 2 -77 76 -167 165 -90 88 -177 170 -195 182 -60 42
-149 25 -218 -41 -7 -7 -43 -37 -80 -67 -37 -30 -80 -67 -96 -81 -18 -16 -224
-103 -555 -234 -485 -193 -529 -213 -568 -251 -78 -79 -148 -254 -192 -484
-22 -115 -46 -302 -59 -455 -2 -33 -7 -87 -10 -120 -3 -33 -7 -94 -10 -135 -3
-41 -8 -93 -11 -116 l-5 -41 1400 0 1400 0 -23 46 c-55 109 -66 212 -34 325
24 86 44 117 273 406 182 230 247 299 313 326 17 8 32 18 32 22 0 4 -15 39
-34 77 -63 130 -95 263 -100 423 -2 40 -7 76 -12 80 -5 5 -65 30 -134 57 -69
27 -127 51 -130 55 -3 3 -17 15 -32 26 -15 12 -51 42 -80 67 -156 134 -182
148 -248 137z"/>
<path d="M3956 640 c-9 -56 -58 -149 -122 -230 -32 -41 -61 -77 -64 -80 -7 -7
-224 -282 -233 -296 -4 -8 105 -11 394 -11 l400 0 -5 81 c-12 165 -25 324 -31
384 -9 82 -16 137 -18 138 -1 1 -41 4 -89 8 -48 4 -119 15 -157 24 l-69 18 -6
-36z"/>
</g>
</svg>
